<svg width="426" height="426" xmlns="http://www.w3.org/2000/svg"><path d="M68.16 0h289.68C395.484 0 426 30.516 426 68.16v289.68c0 37.644-30.516 68.16-68.16 68.16H68.16C30.516 426 0 395.484 0 357.84V68.16C0 30.516 30.516 0 68.16 0zm251.605 384.08l-.07-.015c24.231-.401 43.94-19.641 44.923-43.856.983-24.215-17.1-44.99-41.218-47.355L236.118 138.75c-12.77-22.929-37.425-21.932-46.307 10.609-7.634 30.815-5.67 59.848-7.886 94.93a.533.533 0 0 1-.983.252L103.02 89.2a26.423 26.423 0 0 0 10.104-20.711c0-14.299-11.592-25.89-25.89-25.89-14.299 0-25.89 11.591-25.89 25.89 0 14.298 11.591 25.89 25.89 25.89 1.22 0 2.217-.253 3.2-.253 32.793 84.32 69.291 182.702 82.356 205.393 8.882 21.694 39.206 14.79 39.95-8.63l3.2-123.037c0-.743.982-.743 1.234-.252l62.585 148.912a44.75 44.75 0 0 0-5.613 21.947c.03 25.182 20.437 45.588 45.62 45.62z" fill="#AAA" fill-rule="evenodd"/></svg>