<svg width="426" height="426" xmlns="http://www.w3.org/2000/svg">

 <g>
  <title>background</title>
  <rect fill="none" id="canvas_background" height="402" width="582" y="-1" x="-1"/>
 </g>
 <g>
  <title>Layer 1</title>
  <path id="svg_1" fill-rule="evenodd" fill="#4f4f4f" d="m68.16,0l289.68,0c37.644,0 68.16,30.516 68.16,68.16l0,289.68c0,37.644 -30.516,68.16 -68.16,68.16l-289.68,0c-37.644,0 -68.16,-30.516 -68.16,-68.16l0,-289.68c0,-37.644 30.516,-68.16 68.16,-68.16zm251.605,384.08l-0.07,-0.015c24.231,-0.401 43.94,-19.641 44.923,-43.856c0.983,-24.215 -17.1,-44.99 -41.218,-47.355l-87.282,-154.104c-12.77,-22.929 -37.425,-21.932 -46.307,10.609c-7.634,30.815 -5.67,59.848 -7.886,94.93a0.533,0.533 0 0 1 -0.983,0.252l-77.922,-155.341a26.423,26.423 0 0 0 10.104,-20.711c0,-14.299 -11.592,-25.89 -25.89,-25.89c-14.299,0 -25.89,11.591 -25.89,25.89c0,14.298 11.591,25.89 25.89,25.89c1.22,0 2.217,-0.253 3.2,-0.253c32.793,84.32 69.291,182.702 82.356,205.393c8.882,21.694 39.206,14.79 39.95,-8.63l3.2,-123.037c0,-0.743 0.982,-0.743 1.234,-0.252l62.585,148.912a44.75,44.75 0 0 0 -5.613,21.947c0.03,25.182 20.437,45.588 45.62,45.62l-0.001,0.001z"/>
 </g>
</svg>